<svg version="1.1" id="Layer_1" xmlns="http://www.w3.org/2000/svg" xmlns:xlink="http://www.w3.org/1999/xlink" x="0px" y="0px"
	 width="100%" viewBox="0 0 4096 4096" enable-background="new 0 0 4096 4096" xml:space="preserve">
<path fill="#000000" opacity="1.000000" stroke="none" 
	d="
M2172.000000,4098.000000 
	C1448.000000,4098.000000 725.000000,4098.000000 2.000000,4098.000000 
	C2.000000,2732.666748 2.000000,1367.333374 2.000000,2.000000 
	C1367.333374,2.000000 2732.666748,2.000000 4098.000000,2.000000 
	C4098.000000,1367.333374 4098.000000,2732.666748 4098.000000,4098.000000 
	C3456.333252,4098.000000 2814.666748,4098.000000 2172.000000,4098.000000 
M482.497375,2832.641113 
	C482.940857,2832.390137 483.384308,2832.139160 485.116150,2831.457031 
	C537.141907,2766.724121 589.233459,2702.043945 641.178101,2637.245850 
	C717.059998,2542.587402 792.804138,2447.818115 868.666687,2353.144043 
	C945.959167,2256.685791 1023.326172,2160.287354 1100.655762,2063.859131 
	C1138.503174,2016.664185 1176.361206,1969.477783 1214.177368,1922.257935 
	C1290.222412,1827.302979 1366.229492,1732.317627 1442.277588,1637.364990 
	C1481.491821,1588.402466 1520.771240,1539.492188 1560.000610,1490.541870 
	C1598.870728,1442.040161 1637.783081,1393.572021 1676.551147,1344.988892 
	C1710.715210,1302.175537 1744.596924,1259.136475 1778.811157,1216.363403 
	C1802.052612,1187.307861 1825.661255,1158.546021 1849.076416,1129.629150 
	C1850.898560,1127.378906 1852.490234,1124.941895 1854.265991,1122.485474 
	C1842.500488,1107.749023 1831.164062,1093.431763 1819.702881,1079.215210 
	C1768.604004,1015.830444 1717.376709,952.548767 1666.387817,889.075745 
	C1641.841553,858.519653 1617.865723,827.505554 1593.376099,796.903381 
	C1543.145142,734.134827 1492.721436,671.520569 1442.416504,608.811157 
	C1406.228149,563.699341 1370.111328,518.530151 1333.927490,473.414795 
	C1332.181641,471.238281 1330.095947,469.334259 1327.833618,466.950470 
	C1325.400024,469.526764 1323.707642,471.092590 1322.275269,472.868073 
	C1296.828369,504.411987 1271.358154,535.937256 1246.003662,567.555298 
	C1205.466064,618.107483 1165.049316,668.756714 1124.511353,719.308533 
	C1011.817261,859.840332 899.062927,1000.323792 786.384155,1140.867920 
	C746.064758,1191.158447 705.920410,1241.589355 665.648743,1291.918213 
	C606.878357,1365.365356 548.110291,1438.814331 489.186371,1512.138062 
	C484.370422,1518.131104 482.158173,1524.077271 482.161743,1531.959717 
	C482.356598,1961.580811 482.333466,2391.202148 482.350647,2820.823242 
	C482.350800,2824.478760 482.595947,2828.134033 482.497375,2832.641113 
M3618.134521,2833.106934 
	C3618.802002,2832.842773 3619.469727,2832.578369 3620.277100,2830.404297 
	C3620.296387,2826.405762 3620.332520,2822.406982 3620.332520,2818.408447 
	C3620.335205,2573.088379 3620.334717,2327.768311 3620.334717,2082.448242 
	C3620.334717,1898.458252 3620.298584,1714.468262 3620.469971,1530.478394 
	C3620.476562,1523.375244 3618.603760,1517.967285 3614.103760,1512.461548 
	C3591.176758,1484.409546 3568.626221,1456.049561 3545.968994,1427.777344 
	C3445.980957,1303.011597 3346.017578,1178.225952 3246.014160,1053.472412 
	C3152.899902,937.313171 3059.732666,821.196228 2966.614014,705.040344 
	C2891.377441,611.190674 2816.162109,517.323669 2740.968018,423.439758 
	C2685.070557,353.648712 2629.192383,283.842010 2573.420410,213.950836 
	C2569.830566,209.452164 2566.141113,207.514175 2560.129639,207.517258 
	C2221.147949,207.690781 1882.166504,207.692825 1543.185059,207.511414 
	C1536.765137,207.507980 1532.332642,209.138779 1529.145386,214.520111 
	C1527.994995,216.462265 1526.707764,218.323273 1525.426758,220.308441 
	C1527.540161,223.045792 1529.320312,225.427734 1531.178467,227.747055 
	C1604.963379,319.840118 1678.749878,411.931915 1752.548096,504.014374 
	C1830.683716,601.509033 1908.844971,698.983093 1986.969604,796.486511 
	C2062.003906,890.133057 2136.982666,983.824219 2212.027832,1077.461792 
	C2287.696533,1171.877319 2363.432373,1266.238892 2439.110840,1360.646729 
	C2517.048828,1457.873291 2594.959473,1555.121826 2672.869385,1652.370972 
	C2708.615967,1696.990601 2744.312012,1741.650513 2780.065186,1786.264893 
	C2875.062988,1904.807617 2970.078613,2023.336060 3065.088867,2141.868652 
	C3162.981934,2263.998047 3260.895752,2386.110840 3358.761475,2508.261963 
	C3393.055176,2551.066162 3427.196289,2593.992676 3461.471191,2636.812256 
	C3513.599854,2701.936035 3565.784424,2767.015381 3618.134521,2833.106934 
M1121.665405,2579.000000 
	C1121.797119,3016.600830 1121.928833,3454.201416 1122.080811,3891.802246 
	C1122.080933,3892.070557 1122.357178,3892.369385 1122.565308,3892.598877 
	C1122.786133,3892.842529 1123.079346,3893.020264 1123.192383,3893.109375 
	C1742.458130,3893.109375 2361.574951,3893.109375 2981.665039,3893.109375 
	C2981.665039,3888.670898 2981.665039,3884.748779 2981.665039,3880.826660 
	C2981.665039,3617.858887 2981.665283,3354.891113 2981.665039,3091.923340 
	C2981.665039,2908.279053 2981.609131,2724.635010 2981.841309,2540.990967 
	C2981.852295,2532.422119 2979.403809,2525.966309 2974.098633,2519.431152 
	C2941.209961,2478.916260 2908.637451,2438.144287 2875.989014,2397.434814 
	C2780.150635,2277.934082 2684.313477,2158.432129 2588.501709,2038.910156 
	C2552.952637,1994.563721 2517.492920,1950.145874 2481.962891,1905.784424 
	C2408.613770,1814.203613 2335.315186,1722.582520 2261.857178,1631.089233 
	C2219.627441,1578.491699 2177.017822,1526.199219 2134.787842,1473.601929 
	C2108.375488,1440.705688 2082.342529,1407.504883 2056.177979,1374.410034 
	C2054.770264,1372.629517 2053.720459,1370.566284 2052.240967,1368.216797 
	C2049.523926,1371.345459 2048.182129,1372.790649 2046.949707,1374.323730 
	C1981.355713,1455.910156 1915.722168,1537.464600 1850.203857,1619.111816 
	C1809.863037,1669.383545 1769.728882,1719.820923 1729.451294,1770.143433 
	C1653.226562,1865.378174 1576.974487,1960.591064 1500.716064,2055.798584 
	C1444.223633,2126.328369 1387.699951,2196.832764 1331.194946,2267.352295 
	C1263.022583,2352.432861 1194.885132,2437.541260 1126.600586,2522.531494 
	C1123.032227,2526.972900 1121.450684,2531.373779 1121.572632,2537.006836 
	C1121.861206,2550.332520 1121.665405,2563.668213 1121.665405,2579.000000 
z"/>
<path fill="#05FFFB" opacity="1.000000" stroke="none" 
	d="
M1121.665405,2578.000000 
	C1121.665405,2563.668213 1121.861206,2550.332520 1121.572632,2537.006836 
	C1121.450684,2531.373779 1123.032227,2526.972900 1126.600586,2522.531494 
	C1194.885132,2437.541260 1263.022583,2352.432861 1331.194946,2267.352295 
	C1387.699951,2196.832764 1444.223633,2126.328369 1500.716064,2055.798584 
	C1576.974487,1960.591064 1653.226562,1865.378174 1729.451294,1770.143433 
	C1769.728882,1719.820923 1809.863037,1669.383545 1850.203857,1619.111816 
	C1915.722168,1537.464600 1981.355713,1455.910156 2046.949707,1374.323730 
	C2048.182129,1372.790649 2049.523926,1371.345459 2052.240967,1368.216797 
	C2053.720459,1370.566284 2054.770264,1372.629517 2056.177979,1374.410034 
	C2082.342529,1407.504883 2108.375488,1440.705688 2134.787842,1473.601929 
	C2177.017822,1526.199219 2219.627441,1578.491699 2261.857178,1631.089233 
	C2335.315186,1722.582520 2408.613770,1814.203613 2481.962891,1905.784424 
	C2517.492920,1950.145874 2552.952637,1994.563721 2588.501709,2038.910156 
	C2684.313477,2158.432129 2780.150635,2277.934082 2875.989014,2397.434814 
	C2908.637451,2438.144287 2941.209961,2478.916260 2974.098633,2519.431152 
	C2979.403809,2525.966309 2981.852295,2532.422119 2981.841309,2540.990967 
	C2981.609131,2724.635010 2981.665039,2908.279053 2981.665039,3091.923340 
	C2981.665283,3354.891113 2981.665039,3617.858887 2981.665039,3880.826660 
	C2981.665039,3884.748779 2981.665039,3888.670898 2981.665039,3893.109375 
	C2361.574951,3893.109375 1742.458130,3893.109375 1123.192383,3893.109375 
	C1123.079346,3893.020264 1122.786133,3892.842529 1122.565308,3892.598877 
	C1122.357178,3892.369385 1122.080933,3892.070557 1122.080811,3891.802246 
	C1121.928833,3454.201416 1121.797119,3016.600830 1121.665405,2578.000000 
z"/>
<path fill="#05FFFB" opacity="1.000000" stroke="none" 
	d="
M3617.945068,2832.113770 
	C3565.784424,2767.015381 3513.599854,2701.936035 3461.471191,2636.812256 
	C3427.196289,2593.992676 3393.055176,2551.066162 3358.761475,2508.261963 
	C3260.895752,2386.110840 3162.981934,2263.998047 3065.088867,2141.868652 
	C2970.078613,2023.336060 2875.062988,1904.807617 2780.065186,1786.264893 
	C2744.312012,1741.650513 2708.615967,1696.990601 2672.869385,1652.370972 
	C2594.959473,1555.121826 2517.048828,1457.873291 2439.110840,1360.646729 
	C2363.432373,1266.238892 2287.696533,1171.877319 2212.027832,1077.461792 
	C2136.982666,983.824219 2062.003906,890.133057 1986.969604,796.486511 
	C1908.844971,698.983093 1830.683716,601.509033 1752.548096,504.014374 
	C1678.749878,411.931915 1604.963379,319.840118 1531.178467,227.747055 
	C1529.320312,225.427734 1527.540161,223.045792 1525.426758,220.308441 
	C1526.707764,218.323273 1527.994995,216.462265 1529.145386,214.520111 
	C1532.332642,209.138779 1536.765137,207.507980 1543.185059,207.511414 
	C1882.166504,207.692825 2221.147949,207.690781 2560.129639,207.517258 
	C2566.141113,207.514175 2569.830566,209.452164 2573.420410,213.950836 
	C2629.192383,283.842010 2685.070557,353.648712 2740.968018,423.439758 
	C2816.162109,517.323669 2891.377441,611.190674 2966.614014,705.040344 
	C3059.732666,821.196228 3152.899902,937.313171 3246.014160,1053.472412 
	C3346.017578,1178.225952 3445.980957,1303.011597 3545.968994,1427.777344 
	C3568.626221,1456.049561 3591.176758,1484.409546 3614.103760,1512.461548 
	C3618.603760,1517.967285 3620.476562,1523.375244 3620.469971,1530.478394 
	C3620.298584,1714.468262 3620.334717,1898.458252 3620.334717,2082.448242 
	C3620.334717,2327.768311 3620.335205,2573.088379 3620.332520,2818.408447 
	C3620.332520,2822.406982 3620.296387,2826.405762 3619.649902,2831.411133 
	C3618.663574,2832.316895 3618.304199,2832.215332 3617.945068,2832.113770 
z"/>
<path fill="#05FFFB" opacity="1.000000" stroke="none" 
	d="
M482.726715,2831.789551 
	C482.595947,2828.134033 482.350800,2824.478760 482.350647,2820.823242 
	C482.333466,2391.202148 482.356598,1961.580811 482.161743,1531.959717 
	C482.158173,1524.077271 484.370422,1518.131104 489.186371,1512.138062 
	C548.110291,1438.814331 606.878357,1365.365356 665.648743,1291.918213 
	C705.920410,1241.589355 746.064758,1191.158447 786.384155,1140.867920 
	C899.062927,1000.323792 1011.817261,859.840332 1124.511353,719.308533 
	C1165.049316,668.756714 1205.466064,618.107483 1246.003662,567.555298 
	C1271.358154,535.937256 1296.828369,504.411987 1322.275269,472.868073 
	C1323.707642,471.092590 1325.400024,469.526764 1327.833618,466.950470 
	C1330.095947,469.334259 1332.181641,471.238281 1333.927490,473.414795 
	C1370.111328,518.530151 1406.228149,563.699341 1442.416504,608.811157 
	C1492.721436,671.520569 1543.145142,734.134827 1593.376099,796.903381 
	C1617.865723,827.505554 1641.841553,858.519653 1666.387817,889.075745 
	C1717.376709,952.548767 1768.604004,1015.830444 1819.702881,1079.215210 
	C1831.164062,1093.431763 1842.500488,1107.749023 1854.265991,1122.485474 
	C1852.490234,1124.941895 1850.898560,1127.378906 1849.076416,1129.629150 
	C1825.661255,1158.546021 1802.052612,1187.307861 1778.811157,1216.363403 
	C1744.596924,1259.136475 1710.715210,1302.175537 1676.551147,1344.988892 
	C1637.783081,1393.572021 1598.870728,1442.040161 1560.000610,1490.541870 
	C1520.771240,1539.492188 1481.491821,1588.402466 1442.277588,1637.364990 
	C1366.229492,1732.317627 1290.222412,1827.302979 1214.177368,1922.257935 
	C1176.361206,1969.477783 1138.503174,2016.664185 1100.655762,2063.859131 
	C1023.326172,2160.287354 945.959167,2256.685791 868.666687,2353.144043 
	C792.804138,2447.818115 717.059998,2542.587402 641.178101,2637.245850 
	C589.233459,2702.043945 537.141907,2766.724121 484.211212,2831.486084 
	C483.306274,2831.515137 482.726715,2831.789551 482.726715,2831.789551 
z"/>
<path fill="#03BFBC" opacity="1.000000" stroke="none" 
	d="
M482.612061,2832.215332 
	C482.726715,2831.789551 483.306274,2831.515137 483.567017,2831.701660 
	C483.384308,2832.139160 482.940857,2832.390137 482.612061,2832.215332 
z"/>
<path fill="#01403F" opacity="1.000000" stroke="none" 
	d="
M3618.039795,2832.610352 
	C3618.304199,2832.215332 3618.663574,2832.316895 3619.580078,2832.366211 
	C3619.469727,2832.578369 3618.802002,2832.842773 3618.039795,2832.610352 
z"/>
</svg>